<svg xmlns="http://www.w3.org/2000/svg" width="57.999" height="16" viewBox="0 0 57.999 16">
  <g id="Union_1" data-name="Union 1" transform="translate(3860 86)">
    <path d="M -3831 -72.06188201904297 L -3832.04150390625 -76.2265625 L -3832.129638671875 -76.57907104492188 L -3832.4921875 -76.60407257080078 L -3852.732421875 -78.00025177001953 L -3832.491943359375 -79.39577484130859 L -3832.12939453125 -79.42076873779297 L -3832.041259765625 -79.77332305908203 L -3831.5 -81.93856048583984 L -3831.5 -79.99985504150391 L -3830.5 -79.99985504150391 L -3830.5 -81.93732452392578 L -3829.959228515625 -79.77341461181641 L -3829.87109375 -79.42082214355469 L -3829.508544921875 -79.39582061767578 L -3809.26806640625 -78.00025939941406 L -3829.50830078125 -76.60403442382812 L -3829.870849609375 -76.57903289794922 L -3829.958984375 -76.22649383544922 L -3831 -72.06188201904297 Z" stroke="none"/>
    <path d="M -3830.531005859375 -75.99995422363281 L -3830.267822265625 -77.05283355712891 L -3816.53515625 -78.00014495849609 L -3830.26806640625 -78.94701385498047 L -3830.53125 -79.99985504150391 L -3831.46923828125 -79.99985504150391 L -3831.732421875 -78.94695281982422 L -3845.465087890625 -78.00013732910156 L -3831.73291015625 -77.05287933349609 L -3831.469482421875 -75.99995422363281 L -3830.531005859375 -75.99995422363281 M -3831 -70.00059509277344 L -3831 -75.99995422363281 L -3831 -70.00059509277344 L -3832.526611328125 -76.10526275634766 L -3859.999755859375 -78.00038146972656 L -3832.5263671875 -79.89459228515625 L -3831 -86.00016784667969 L -3831 -79.99985504150391 L -3831 -86.00016784667969 L -3829.47412109375 -79.89463806152344 L -3802.0009765625 -78.00038146972656 L -3829.473876953125 -76.105224609375 L -3831 -70.00059509277344 Z" stroke="none" fill="#000"/>
  </g>
</svg>
